<mxfile host="Electron" modified="2023-12-04T17:34:37.225Z" agent="Mozilla/5.0 (Macintosh; Intel Mac OS X 10_15_7) AppleWebKit/537.36 (KHTML, like Gecko) draw.io/21.2.8 Chrome/112.0.5615.165 Electron/24.2.0 Safari/537.36" etag="F-hqBx2tSRCJW51xFW51" version="21.2.8" type="device">
  <diagram name="Page-1" id="FiviYORW3NVL--3KVq5y">
    <mxGraphModel dx="2331" dy="537" grid="1" gridSize="10" guides="1" tooltips="1" connect="1" arrows="1" fold="1" page="1" pageScale="1" pageWidth="1169" pageHeight="827" math="0" shadow="0">
      <root>
        <mxCell id="0" />
        <mxCell id="1" parent="0" />
        <mxCell id="TdggNJv06atgpXGBWtPQ-5" style="edgeStyle=orthogonalEdgeStyle;rounded=0;orthogonalLoop=1;jettySize=auto;html=1;exitX=1;exitY=0.5;exitDx=0;exitDy=0;entryX=0;entryY=0.5;entryDx=0;entryDy=0;" parent="1" source="TdggNJv06atgpXGBWtPQ-1" target="TdggNJv06atgpXGBWtPQ-4" edge="1">
          <mxGeometry relative="1" as="geometry" />
        </mxCell>
        <mxCell id="TdggNJv06atgpXGBWtPQ-28" style="edgeStyle=orthogonalEdgeStyle;rounded=0;orthogonalLoop=1;jettySize=auto;html=1;entryX=0;entryY=0.5;entryDx=0;entryDy=0;dashed=1;dashPattern=1 2;" parent="1" target="TdggNJv06atgpXGBWtPQ-12" edge="1">
          <mxGeometry relative="1" as="geometry">
            <mxPoint x="540" y="280" as="sourcePoint" />
            <Array as="points">
              <mxPoint x="540" y="120" />
            </Array>
          </mxGeometry>
        </mxCell>
        <mxCell id="TdggNJv06atgpXGBWtPQ-1" value="port&lt;br&gt;p_mclk" style="whiteSpace=wrap;html=1;aspect=fixed;" parent="1" vertex="1">
          <mxGeometry x="440" y="240" width="80" height="80" as="geometry" />
        </mxCell>
        <mxCell id="TdggNJv06atgpXGBWtPQ-3" value="" style="edgeStyle=orthogonalEdgeStyle;rounded=0;orthogonalLoop=1;jettySize=auto;html=1;exitX=0.875;exitY=0.5;exitDx=0;exitDy=0;entryX=0;entryY=0.5;entryDx=0;entryDy=0;exitPerimeter=0;" parent="1" source="TdggNJv06atgpXGBWtPQ-46" target="TdggNJv06atgpXGBWtPQ-1" edge="1">
          <mxGeometry relative="1" as="geometry">
            <mxPoint x="350" y="280" as="sourcePoint" />
            <mxPoint as="offset" />
          </mxGeometry>
        </mxCell>
        <mxCell id="SbjWwOj7fIwRX0Hr9EIF-5" style="edgeStyle=orthogonalEdgeStyle;rounded=0;orthogonalLoop=1;jettySize=auto;html=1;entryX=0;entryY=0.5;entryDx=0;entryDy=0;" edge="1" parent="1" source="TdggNJv06atgpXGBWtPQ-4" target="SbjWwOj7fIwRX0Hr9EIF-3">
          <mxGeometry relative="1" as="geometry">
            <Array as="points">
              <mxPoint x="600" y="460" />
              <mxPoint x="70" y="460" />
              <mxPoint x="70" y="374" />
            </Array>
          </mxGeometry>
        </mxCell>
        <mxCell id="TdggNJv06atgpXGBWtPQ-4" value="clock block&lt;br&gt;clk_mclk" style="whiteSpace=wrap;html=1;aspect=fixed;" parent="1" vertex="1">
          <mxGeometry x="560" y="240" width="80" height="80" as="geometry" />
        </mxCell>
        <mxCell id="TdggNJv06atgpXGBWtPQ-6" value="dummy&lt;br&gt;port&lt;br&gt;p_ref_&lt;br&gt;clk_count" style="whiteSpace=wrap;html=1;aspect=fixed;" parent="1" vertex="1">
          <mxGeometry x="280" y="80" width="80" height="80" as="geometry" />
        </mxCell>
        <mxCell id="TdggNJv06atgpXGBWtPQ-7" value="" style="endArrow=classic;html=1;rounded=0;entryX=0;entryY=0.25;entryDx=0;entryDy=0;" parent="1" target="SbjWwOj7fIwRX0Hr9EIF-1" edge="1">
          <mxGeometry width="50" height="50" relative="1" as="geometry">
            <mxPoint x="30" y="354" as="sourcePoint" />
            <mxPoint x="150" y="280" as="targetPoint" />
          </mxGeometry>
        </mxCell>
        <mxCell id="TdggNJv06atgpXGBWtPQ-31" style="edgeStyle=orthogonalEdgeStyle;rounded=0;orthogonalLoop=1;jettySize=auto;html=1;exitX=1;exitY=0.5;exitDx=0;exitDy=0;entryX=0;entryY=0.5;entryDx=0;entryDy=0;" parent="1" source="TdggNJv06atgpXGBWtPQ-10" target="TdggNJv06atgpXGBWtPQ-6" edge="1">
          <mxGeometry relative="1" as="geometry" />
        </mxCell>
        <mxCell id="TdggNJv06atgpXGBWtPQ-10" value="clock block&lt;br&gt;clk_ref_clk&amp;nbsp;" style="whiteSpace=wrap;html=1;aspect=fixed;" parent="1" vertex="1">
          <mxGeometry x="160" y="80" width="80" height="80" as="geometry" />
        </mxCell>
        <mxCell id="TdggNJv06atgpXGBWtPQ-29" style="edgeStyle=orthogonalEdgeStyle;rounded=0;orthogonalLoop=1;jettySize=auto;html=1;exitX=1;exitY=0.5;exitDx=0;exitDy=0;entryX=0;entryY=0.5;entryDx=0;entryDy=0;dashed=1;dashPattern=1 2;" parent="1" source="TdggNJv06atgpXGBWtPQ-12" target="TdggNJv06atgpXGBWtPQ-13" edge="1">
          <mxGeometry relative="1" as="geometry" />
        </mxCell>
        <mxCell id="TdggNJv06atgpXGBWtPQ-12" value="clock block&lt;br&gt;clk_recovered&lt;br&gt;_ref_clk" style="whiteSpace=wrap;html=1;aspect=fixed;dashed=1;dashPattern=1 2;" parent="1" vertex="1">
          <mxGeometry x="600" y="80" width="80" height="80" as="geometry" />
        </mxCell>
        <mxCell id="TdggNJv06atgpXGBWtPQ-14" style="edgeStyle=orthogonalEdgeStyle;rounded=0;orthogonalLoop=1;jettySize=auto;html=1;exitX=1;exitY=0.5;exitDx=0;exitDy=0;dashed=1;dashPattern=1 2;" parent="1" source="TdggNJv06atgpXGBWtPQ-13" edge="1">
          <mxGeometry relative="1" as="geometry">
            <mxPoint x="880" y="120" as="targetPoint" />
          </mxGeometry>
        </mxCell>
        <mxCell id="TdggNJv06atgpXGBWtPQ-13" value="port&lt;br&gt;p_&lt;br&gt;recovered&lt;br&gt;_ref_clk" style="whiteSpace=wrap;html=1;aspect=fixed;dashed=1;dashPattern=1 2;" parent="1" vertex="1">
          <mxGeometry x="720" y="80" width="80" height="80" as="geometry" />
        </mxCell>
        <mxCell id="TdggNJv06atgpXGBWtPQ-15" value="Divided output clock&lt;br&gt;for comparison&lt;br&gt;with input ref_clk" style="text;html=1;align=center;verticalAlign=middle;resizable=0;points=[];autosize=1;strokeColor=none;fillColor=none;" parent="1" vertex="1">
          <mxGeometry x="810" y="60" width="130" height="60" as="geometry" />
        </mxCell>
        <mxCell id="TdggNJv06atgpXGBWtPQ-26" style="edgeStyle=orthogonalEdgeStyle;rounded=0;orthogonalLoop=1;jettySize=auto;html=1;exitX=0.5;exitY=0;exitDx=0;exitDy=0;entryX=0;entryY=0.5;entryDx=0;entryDy=0;" parent="1" source="SbjWwOj7fIwRX0Hr9EIF-1" target="TdggNJv06atgpXGBWtPQ-10" edge="1">
          <mxGeometry relative="1" as="geometry">
            <mxPoint x="440" y="40" as="targetPoint" />
            <Array as="points">
              <mxPoint x="140" y="120" />
            </Array>
            <mxPoint x="210" y="210" as="sourcePoint" />
          </mxGeometry>
        </mxCell>
        <mxCell id="TdggNJv06atgpXGBWtPQ-18" value="sw_pll" style="ellipse;shape=cloud;whiteSpace=wrap;html=1;" parent="1" vertex="1">
          <mxGeometry x="262" y="240" width="120" height="80" as="geometry" />
        </mxCell>
        <mxCell id="TdggNJv06atgpXGBWtPQ-23" value="Port counter &lt;br&gt;input to PLL" style="text;html=1;align=center;verticalAlign=middle;resizable=0;points=[];autosize=1;strokeColor=none;fillColor=none;" parent="1" vertex="1">
          <mxGeometry x="320" y="334" width="90" height="40" as="geometry" />
        </mxCell>
        <mxCell id="TdggNJv06atgpXGBWtPQ-30" value="Input ref_clk" style="text;html=1;align=center;verticalAlign=middle;resizable=0;points=[];autosize=1;strokeColor=none;fillColor=none;" parent="1" vertex="1">
          <mxGeometry x="-10" y="320" width="90" height="30" as="geometry" />
        </mxCell>
        <mxCell id="TdggNJv06atgpXGBWtPQ-33" value="Input from this port&lt;br&gt;to provide a precise&lt;br&gt;timing barrier for each&lt;br&gt;ref clock transition" style="text;html=1;align=center;verticalAlign=middle;resizable=0;points=[];autosize=1;strokeColor=none;fillColor=none;" parent="1" vertex="1">
          <mxGeometry x="370" y="80" width="140" height="70" as="geometry" />
        </mxCell>
        <mxCell id="TdggNJv06atgpXGBWtPQ-34" value="Optional divided&lt;br&gt;PLL output clock" style="text;html=1;align=center;verticalAlign=middle;resizable=0;points=[];autosize=1;strokeColor=none;fillColor=none;" parent="1" vertex="1">
          <mxGeometry x="640" y="170" width="110" height="40" as="geometry" />
        </mxCell>
        <mxCell id="TdggNJv06atgpXGBWtPQ-35" value="" style="triangle;whiteSpace=wrap;html=1;" parent="1" vertex="1">
          <mxGeometry x="280" y="110" width="10" height="20" as="geometry" />
        </mxCell>
        <mxCell id="TdggNJv06atgpXGBWtPQ-44" value="" style="triangle;whiteSpace=wrap;html=1;" parent="1" vertex="1">
          <mxGeometry x="720" y="110" width="10" height="20" as="geometry" />
        </mxCell>
        <mxCell id="TdggNJv06atgpXGBWtPQ-47" value="" style="edgeStyle=orthogonalEdgeStyle;rounded=0;orthogonalLoop=1;jettySize=auto;html=1;exitX=0.875;exitY=0.5;exitDx=0;exitDy=0;entryX=0;entryY=0.5;entryDx=0;entryDy=0;exitPerimeter=0;" parent="1" source="TdggNJv06atgpXGBWtPQ-18" target="TdggNJv06atgpXGBWtPQ-46" edge="1">
          <mxGeometry relative="1" as="geometry">
            <mxPoint x="367" y="280" as="sourcePoint" />
            <mxPoint x="440" y="280" as="targetPoint" />
            <mxPoint as="offset" />
          </mxGeometry>
        </mxCell>
        <mxCell id="TdggNJv06atgpXGBWtPQ-46" value="" style="triangle;whiteSpace=wrap;html=1;" parent="1" vertex="1">
          <mxGeometry x="440" y="270" width="10" height="20" as="geometry" />
        </mxCell>
        <mxCell id="SbjWwOj7fIwRX0Hr9EIF-4" style="edgeStyle=orthogonalEdgeStyle;rounded=0;orthogonalLoop=1;jettySize=auto;html=1;exitX=1;exitY=0.5;exitDx=0;exitDy=0;entryX=0.55;entryY=0.95;entryDx=0;entryDy=0;entryPerimeter=0;" edge="1" parent="1" source="SbjWwOj7fIwRX0Hr9EIF-1" target="TdggNJv06atgpXGBWtPQ-18">
          <mxGeometry relative="1" as="geometry" />
        </mxCell>
        <mxCell id="SbjWwOj7fIwRX0Hr9EIF-1" value="&lt;br&gt;port&lt;br&gt;p_clock_&lt;br&gt;counter" style="whiteSpace=wrap;html=1;aspect=fixed;" vertex="1" parent="1">
          <mxGeometry x="100" y="334" width="80" height="80" as="geometry" />
        </mxCell>
        <mxCell id="SbjWwOj7fIwRX0Hr9EIF-3" value="" style="triangle;whiteSpace=wrap;html=1;" vertex="1" parent="1">
          <mxGeometry x="100" y="364" width="10" height="20" as="geometry" />
        </mxCell>
        <mxCell id="SbjWwOj7fIwRX0Hr9EIF-8" style="edgeStyle=orthogonalEdgeStyle;rounded=0;orthogonalLoop=1;jettySize=auto;html=1;exitX=0.5;exitY=0;exitDx=0;exitDy=0;entryX=0;entryY=0.25;entryDx=0;entryDy=0;endArrow=none;endFill=0;strokeColor=#8c8c8c;" edge="1" parent="1" source="SbjWwOj7fIwRX0Hr9EIF-1" target="SbjWwOj7fIwRX0Hr9EIF-1">
          <mxGeometry relative="1" as="geometry">
            <Array as="points">
              <mxPoint x="140" y="354" />
            </Array>
          </mxGeometry>
        </mxCell>
      </root>
    </mxGraphModel>
  </diagram>
</mxfile>
